inDegrees=yes
name=IK-live
DataType=double
version=3
OpenSimVersion=4.1
endheader
time	pelvis_tilt	pelvis_list	pelvis_rotation	pelvis_tx	pelvis_ty	pelvis_tz	hip_flexion_r	hip_adduction_r	hip_rotation_r	knee_angle_r	ankle_angle_r	subtalar_angle_r	mtp_angle_r	hip_flexion_l	hip_adduction_l	hip_rotation_l	knee_angle_l	ankle_angle_l	subtalar_angle_l	mtp_angle_l	lumbar_extension	lumbar_bending	lumbar_rotation	neck_flex	neck_latbend	neck_rot	arm_flex_r	arm_add_r	arm_rot_r	elbow_flex_r	pro_sup_r	wrist_flex_r	wrist_dev_r	arm_flex_l	arm_add_l	arm_rot_l	elbow_flex_l	pro_sup_l	wrist_flex_l	wrist_dev_l
19.4994992	-13.50736099398746	6.979236989173884	-201.0193450315294	0.2341366603171506	0.04326292228651554	-1.326684523481465	-22.57117169827992	-1.591976316804377	-3.241458145969817	5.899560354604904	2.451982624139334	1.987972377786656	0	-24.74788768789517	-3.395140484746916	-11.58000132048591	9.793848132074926	-0.4439473045988533	4.250290820099795	0	-21.37711699760957	1.659277491615732	3.206407148933037	0	0	0	88.37917890174577	-15.00069824831629	0.1942771933285442	75.06071548602981	45.02006059270688	0	5.019122029323981	88.61417611547608	-14.99298544027208	0.3392033542075598	75.08495454070241	45.01445570207139	0	5.019122029323981
19.674405	-13.49291447787208	6.977484330276039	-201.019738949274	0.2341366603171506	0.04326292228651554	-1.326684523481465	-22.57117169827992	-1.591976316804377	-3.241458145969817	5.899560354604904	2.451982624139334	1.987972377786656	0	-24.74788768789517	-3.395140484746916	-11.58000132048591	9.793848132074926	-0.4439473045988533	4.250290820099795	0	-21.37711699760957	1.659277491615732	3.206407148933037	0	0	0	88.35738846015956	-15.00072011676766	0.2016606701777973	75.06349570328359	45.02122070882313	0	5.019963096269751	88.59554526007211	-14.99276575474217	0.3520947535776111	75.0888479105616	45.01529167982931	0	5.019963096269751
19.8493062	-13.49259284396352	6.97663334160442	-201.0215164979908	0.2341366603171506	0.04326292228651554	-1.326684523481465	-22.57117169827992	-1.591976316804377	-3.241458145969817	5.899560354604904	2.451982624139334	1.987972377786656	0	-24.74788768789517	-3.395140484746916	-11.58000132048591	9.793848132074926	-0.4439473045988533	4.250290820099795	0	-21.37711699760957	1.659277491615732	3.206407148933037	0	0	0	88.53145865491456	-15.00060239622817	0.1658490825847878	75.05128856903376	45.01627076161962	0	5.014390910794296	88.74437889068074	-14.99394834872185	0.2895692490945803	75.07175325762776	45.01172475553566	0	5.014390910794296
20.00022	-13.4934996975442	6.96894257802443	-201.0163974668982	0.2341366603171506	0.04326292228651554	-1.326684523481465	-22.57117169827992	-1.591976316804377	-3.241458145969817	5.899560354604904	2.451982624139334	1.987972377786656	0	-24.74788768789517	-3.395140484746916	-11.58000132048591	9.793848132074926	-0.4439473045988533	4.250290820099795	0	-21.37711699760957	1.659277491615732	3.206407148933037	0	0	0	88.67292430870371	-15.00049648188071	0.1330134883581812	75.03996049109311	45.01182074598326	0	5.009803628344728	88.86533356281821	-14.995012340364	0.2322392253876134	75.05588961064852	45.00851808136604	0	5.009803628344728
20.1750951	-13.4934996975442	6.96894257802443	-201.0163974668982	0.2341366603171506	0.04326292228651554	-1.326684523481465	-22.57117169827992	-1.591976316804377	-3.241458145969817	5.899560354604904	2.451982624139334	1.987972377786656	0	-24.74788768789517	-3.395140484746916	-11.58000132048591	9.793848132074926	-0.4439473045988533	4.250290820099795	0	-21.37711699760957	1.659277491615732	3.206407148933037	0	0	0	88.67292430870371	-15.00049648188071	0.1330134883581812	75.03996049109311	45.01182074598326	0	5.009803628344728	88.86533356281821	-14.995012340364	0.2322392253876134	75.05588961064852	45.00851808136604	0	5.009803628344728
20.3494819	-13.49694685425748	6.960913763316147	-201.0155247892845	0.2341366603171506	0.04326292228651554	-1.326684523481465	-22.57117169827992	-1.591976316804377	-3.241458145969817	5.899560354604904	2.451982624139334	1.987972377786656	0	-24.74788768789517	-3.395140484746916	-11.58000132048591	9.793848132074926	-0.4439473045988533	4.250290820099795	0	-21.37711699760957	1.659277491615732	3.206407148933037	0	0	0	88.81421655298865	-15.00040543879195	0.1058949608796157	75.03097639080553	45.00854091172085	0	5.006605265442172	88.98614032068112	-14.99592693869654	0.1848909239733968	75.0433084270024	45.00615463815043	0	5.006605265442172
20.5023776	-13.49508738195899	6.964415160836266	-201.013082115625	0.2341366603171506	0.04326292228651554	-1.326684523481465	-22.57117169827992	-1.591976316804377	-3.241458145969817	5.899560354604904	2.451982624139334	1.987972377786656	0	-24.74788768789517	-3.395140484746916	-11.58000132048591	9.793848132074926	-0.4439473045988533	4.250290820099795	0	-21.37711699760957	1.659277491615732	3.206407148933037	0	0	0	88.82803124022287	-15.00039299086938	0.1016689477907819	75.02931615136889	45.00753580550962	0	5.005262339339295	88.99795195764395	-14.99605198771886	0.1775123749796514	75.04098345491413	45.00543036027162	0	5.005262339339295
20.6742946	-13.4910057727202	6.968375137240952	-201.0137003003571	0.2341366603171506	0.04326292228651554	-1.326684523481465	-22.57117169827992	-1.591976316804377	-3.241458145969817	5.899560354604904	2.451982624139334	1.987972377786656	0	-24.74788768789517	-3.395140484746916	-11.58000132048591	9.793848132074926	-0.4439473045988533	4.250290820099795	0	-21.37711699760957	1.659277491615732	3.206407148933037	0	0	0	88.85946625320548	-15.00036489318635	0.09225651903403413	75.02572057179957	45.00571518347229	0	5.003379167339448	89.02482910968051	-14.99633425070506	0.1610784493670788	75.03594826455702	45.00411842303382	0	5.003379167339448
20.849194	-13.49578144252582	6.973274581083285	-201.0124054837723	0.2341366603171506	0.04326292228651554	-1.326684523481465	-22.57117169827992	-1.591976316804377	-3.241458145969817	5.899560354604904	2.451982624139334	1.987972377786656	0	-24.74788768789517	-3.395140484746916	-11.58000132048591	9.793848132074926	-0.4439473045988533	4.250290820099795	0	-21.37711699760957	1.659277491615732	3.206407148933037	0	0	0	88.87509970664543	-15.0003518327403	0.08798505821025895	75.02413425517044	45.00495753875331	0	5.002614829813531	89.03819581354165	-14.99646545300005	0.1536205478583909	75.03372681267355	45.00357246550616	0	5.002614829813531
21.0240621	-13.4911070830053	6.967892447177522	-201.0131398903584	0.2341366603171506	0.04326292228651554	-1.326684523481465	-22.57117169827992	-1.591976316804377	-3.241458145969817	5.899560354604904	2.451982624139334	1.987972377786656	0	-24.74788768789517	-3.395140484746916	-11.58000132048591	9.793848132074926	-0.4439473045988533	4.250290820099795	0	-21.37711699760957	1.659277491615732	3.206407148933037	0	0	0	88.99856507541868	-15.00027470839134	0.06570406645378286	75.01715629688603	45.00308951912669	0	5.001469416330972	89.14375986248415	-14.99724022681349	0.1147182992230877	75.02395499372888	45.00222637366858	0	5.001469416330972
21.1747467	-13.49414814087741	6.97126511650137	-201.0125763369312	0.2341366603171506	0.04326292228651554	-1.326684523481465	-22.57117169827992	-1.591976316804377	-3.241458145969817	5.899560354604904	2.451982624139334	1.987972377786656	0	-24.74788768789517	-3.395140484746916	-11.58000132048591	9.793848132074926	-0.4439473045988533	4.250290820099795	0	-21.37711699760957	1.659277491615732	3.206407148933037	0	0	0	89.1125616127505	-15.00020972291743	0.04748252735018848	75.01164196723145	45.00173640846619	0	5.000713681008778	89.24122803296481	-14.99789305622636	0.08290377038275167	75.01623281606491	45.00125132438333	0	5.000713681008778
21.3496581	-13.49414814087741	6.97126511650137	-201.0125763369312	0.2341366603171506	0.04326292228651554	-1.326684523481465	-22.57117169827992	-1.591976316804377	-3.241458145969817	5.899560354604904	2.451982624139334	1.987972377786656	0	-24.74788768789517	-3.395140484746916	-11.58000132048591	9.793848132074926	-0.4439473045988533	4.250290820099795	0	-21.37711699760957	1.659277491615732	3.206407148933037	0	0	0	89.1125616127505	-15.00020972291743	0.04748252735018848	75.01164196723145	45.00173640846619	0	5.000713681008778	89.24122803296481	-14.99789305622636	0.08290377038275167	75.01623281606491	45.00125132438333	0	5.000713681008778
